# xmcd
#
# Track frame offsets: 
#        150
#        12218
#        29633
#        47070
#        63429
#        79183
#        95012
#        109372
#        121779
#        140524
#        164213
#        178139
#        193584
#        206967
#        221542
#
# Disc length: 3195 seconds
#
# Revision: 1
# Processed by: cddbd v1.5.2PL0 Copyright (c) Steve Scherf et al.
# Submitted via: ExactAudioCopy v0.99pb5
#
DISCID=e60c790f
DTITLE=Norah Jones - The Fall (Deluxe Edition for Japan: Disc 1)
DYEAR=2009
DGENRE=Jazz
TTITLE0=Chasing Pirates
TTITLE1=Even Though
TTITLE2=Light As A Feather
TTITLE3=Young Blood
TTITLE4=I Wouldn't Need You
TTITLE5=Waiting
TTITLE6=It's Gonna Be
TTITLE7=You've Ruined Me
TTITLE8=Back To Manhattan
TTITLE9=Stuck
TTITLE10=December
TTITLE11=Tell Yer Mama
TTITLE12=Man Of The Hour
TTITLE13=Her Red Shoes
TTITLE14=Can't Stop
EXTD=YEAR: 2009
EXTT0=
EXTT1=
EXTT2=
EXTT3=
EXTT4=
EXTT5=
EXTT6=
EXTT7=
EXTT8=
EXTT9=
EXTT10=
EXTT11=
EXTT12=
EXTT13=
EXTT14=
PLAYORDER=
